<?xml version="1.0" standalone="no"?>
<!DOCTYPE svg PUBLIC "-//W3C//DTD SVG 20010904//EN"
 "http://www.w3.org/TR/2001/REC-SVG-20010904/DTD/svg10.dtd">
<svg version="1.0" xmlns="http://www.w3.org/2000/svg"
 width="454.000000pt" height="454.000000pt" viewBox="0 0 454.000000 454.000000"
 preserveAspectRatio="xMidYMid meet">
<metadata>
Created by potrace 1.14, written by Peter Selinger 2001-2017
</metadata>
<g transform="translate(0.000000,454.000000) scale(0.100000,-0.100000)"
fill="#000000" stroke="none">
<path d="M2493 3858 c-12 -13 -56 -77 -98 -143 -113 -175 -169 -259 -176 -265
-4 -3 -20 -27 -37 -55 -44 -71 -159 -248 -172 -262 -5 -7 -10 -17 -10 -23 0
-5 -4 -10 -10 -10 -5 0 -10 -7 -10 -15 0 -27 -19 -16 -39 23 -11 20 -27 46
-36 57 -9 11 -54 78 -99 148 -46 71 -92 134 -102 141 -28 19 -70 12 -98 -15
-14 -13 -26 -27 -26 -31 0 -7 -101 -163 -120 -185 -5 -7 -10 -14 -10 -16 0 -3
-164 -254 -220 -337 -6 -8 -79 -119 -163 -246 -83 -127 -181 -275 -217 -328
-36 -54 -69 -105 -75 -115 -34 -57 -60 -97 -65 -101 -3 -3 -21 -30 -40 -60
-19 -30 -37 -57 -40 -60 -3 -3 -35 -50 -70 -105 -35 -55 -68 -104 -72 -110 -5
-5 -31 -44 -57 -85 -27 -41 -134 -204 -239 -363 -104 -158 -186 -290 -180
-293 5 -3 82 -5 171 -5 l161 1 22 28 c12 15 104 151 205 302 100 151 186 277
191 278 4 2 8 8 8 12 0 11 61 103 74 112 7 5 7 8 1 8 -6 0 -5 3 1 8 6 4 23 27
39 51 15 25 31 49 36 55 5 6 111 164 234 351 254 384 241 364 278 416 15 21
27 43 27 49 0 5 3 10 8 10 4 1 48 63 97 140 50 76 93 139 98 140 4 0 20 -21
35 -46 15 -26 32 -51 38 -58 5 -6 18 -25 28 -41 l18 -31 -40 -59 c-21 -33
-106 -161 -187 -285 -334 -508 -445 -676 -453 -685 -4 -5 -17 -25 -27 -42 -11
-18 -23 -33 -28 -33 -4 0 -6 -4 -2 -9 3 -5 1 -12 -5 -16 -13 -8 -80 -112 -80
-125 0 -6 -4 -10 -10 -10 -5 0 -16 -16 -25 -35 -9 -19 -23 -39 -31 -46 -8 -6
-14 -17 -14 -24 0 -8 -4 -15 -8 -17 -4 -2 -49 -66 -99 -143 -51 -77 -97 -145
-103 -152 -5 -7 -10 -17 -10 -23 0 -5 -4 -10 -8 -10 -8 0 -16 -14 -40 -62 -2
-5 74 -8 169 -8 171 0 172 0 195 26 13 14 24 27 24 30 0 8 151 234 161 240 5
3 7 10 4 15 -4 5 -2 9 2 9 5 0 17 15 28 33 10 17 23 37 28 42 4 6 72 107 149
225 78 118 147 218 152 222 7 5 7 8 1 8 -6 0 -6 3 1 8 14 10 394 580 394 592
0 6 4 10 8 10 5 0 15 11 22 25 l13 25 33 -47 c19 -27 37 -53 41 -59 13 -17 33
-48 39 -61 5 -10 -111 -201 -145 -240 -6 -7 -11 -15 -11 -18 0 -3 -5 -11 -10
-18 -6 -7 -35 -50 -65 -97 -29 -47 -59 -91 -65 -97 -6 -7 -8 -13 -5 -13 4 0 0
-6 -7 -13 -7 -8 -50 -72 -96 -143 -163 -252 -233 -359 -247 -376 -8 -10 -11
-18 -7 -18 4 0 2 -4 -4 -8 -5 -4 -21 -25 -34 -47 -13 -22 -27 -42 -30 -45 -3
-3 -17 -23 -30 -45 -13 -22 -29 -43 -34 -47 -6 -4 -7 -8 -2 -8 5 0 1 -10 -10
-22 -26 -30 -57 -79 -52 -84 3 -3 275 -7 329 -5 16 1 37 29 145 196 32 50 62
95 67 100 4 6 36 53 69 105 33 52 66 98 72 102 6 5 7 8 1 8 -6 0 -6 3 1 8 6 4
34 43 62 87 187 293 298 452 307 441 13 -15 30 -43 51 -80 9 -16 27 -40 39
-54 23 -25 23 -25 4 -56 -10 -17 -26 -46 -35 -63 -9 -18 -21 -33 -26 -33 -5 0
-7 -4 -4 -9 4 -5 2 -11 -2 -13 -7 -2 -88 -124 -157 -235 -5 -9 -40 -62 -76
-117 -36 -56 -72 -112 -79 -125 -7 -14 -17 -30 -21 -35 -8 -10 -85 -128 -123
-189 -10 -16 -16 -30 -14 -33 3 -3 271 -7 329 -5 15 1 61 65 174 246 21 33 41
62 45 65 4 3 15 21 25 40 10 19 27 46 37 60 11 14 43 62 72 107 l53 83 22 -28
c12 -15 32 -44 43 -64 12 -21 25 -38 30 -38 4 0 8 -4 8 -9 0 -7 176 -277 226
-346 8 -11 27 -41 44 -67 16 -27 37 -48 47 -49 63 -2 328 2 331 5 3 4 -45 80
-307 476 -53 80 -99 152 -102 160 -4 9 -14 22 -23 29 -9 7 -16 17 -16 22 0 5
-27 49 -61 98 l-61 90 57 85 c31 47 58 86 60 86 2 0 36 -48 76 -107 40 -60 95
-142 124 -183 28 -41 98 -145 156 -230 57 -85 106 -157 109 -160 3 -3 21 -30
40 -60 19 -30 37 -57 40 -60 3 -3 20 -27 38 -55 17 -27 35 -55 39 -60 29 -37
60 -84 72 -107 14 -27 17 -28 100 -29 130 -1 265 2 269 5 4 5 -159 249 -173
258 -6 5 -6 8 0 8 6 0 5 3 -1 8 -9 6 -38 47 -79 111 -6 9 -24 36 -40 60 -59
86 -106 157 -133 200 -15 24 -32 48 -37 55 -6 6 -26 36 -45 66 -19 30 -37 57
-40 60 -3 3 -36 52 -74 110 -39 58 -75 108 -80 112 -7 5 -7 8 -1 8 6 0 6 3 -1
8 -13 9 -74 101 -74 112 0 4 -4 10 -8 12 -11 4 -72 97 -72 109 0 5 -4 9 -10 9
-21 0 -5 52 27 88 7 7 20 28 29 47 9 19 21 35 26 35 5 0 6 5 3 10 -3 6 -3 10
2 10 9 -1 18 -12 95 -125 30 -44 75 -109 99 -145 25 -36 72 -103 104 -150 32
-47 61 -87 65 -90 4 -3 9 -10 11 -15 2 -6 40 -63 84 -127 44 -65 95 -139 112
-165 18 -26 41 -59 50 -72 20 -27 135 -193 224 -325 80 -117 103 -150 110
-156 3 -3 8 -9 10 -15 2 -5 20 -33 39 -62 l35 -52 173 -3 c96 -2 176 -1 178 1
2 2 -1 10 -7 18 -6 7 -8 13 -5 13 4 0 1 6 -6 13 -7 8 -58 81 -113 163 -55 82
-102 151 -105 154 -3 3 -23 32 -45 65 -22 33 -42 62 -45 65 -3 3 -21 30 -40
60 -19 30 -37 57 -40 60 -4 3 -38 52 -76 110 -38 58 -71 107 -74 110 -3 3 -42
59 -85 125 -44 66 -83 122 -87 123 -5 2 -8 10 -8 17 0 7 -4 15 -8 17 -5 2 -39
50 -77 108 -38 58 -75 111 -81 117 -7 7 -22 29 -35 50 -13 21 -26 40 -29 43
-3 3 -21 30 -40 60 -19 30 -37 57 -40 60 -3 3 -41 59 -84 125 -44 66 -82 122
-86 125 -3 3 -23 32 -44 65 -21 33 -52 80 -70 105 -18 25 -70 101 -117 170
-46 69 -87 127 -91 128 -5 2 -8 7 -8 12 0 4 -24 42 -52 84 -29 42 -58 86 -65
98 -6 11 -15 23 -20 27 -5 3 -26 34 -48 68 -22 35 -43 63 -47 63 -5 0 -8 5 -8
11 0 6 -29 53 -65 104 -36 52 -65 98 -65 103 0 16 -48 42 -78 42 -17 0 -37 -9
-49 -22z m112 -558 l56 -80 -52 -80 -51 -80 -27 37 c-15 21 -36 53 -46 71 -11
17 -23 32 -28 32 -4 0 -6 4 -3 9 4 5 2 11 -3 13 -8 3 85 158 94 158 2 0 29
-36 60 -80z m-287 -439 c29 -43 52 -81 52 -85 0 -3 -16 -28 -35 -55 -19 -26
-35 -53 -35 -58 0 -6 -8 -17 -19 -27 -17 -16 -20 -13 -72 65 -30 45 -53 86
-51 92 5 18 94 147 101 147 4 0 30 -35 59 -79z m598 -12 c53 -77 54 -63 -15
-176 -35 -58 -39 -62 -53 -45 -17 19 -98 141 -101 152 -1 3 20 41 47 83 38 59
52 74 62 66 7 -6 34 -42 60 -80z m-328 -384 c12 -19 22 -39 22 -45 0 -5 4 -10
9 -10 6 0 21 -19 35 -41 l24 -42 -38 -56 c-21 -31 -44 -68 -51 -84 -7 -15 -16
-26 -20 -25 -7 3 -91 126 -110 161 -8 14 2 35 43 97 29 44 55 80 58 80 3 0 15
-16 28 -35z"/>
</g>
</svg>
